<?xml version="1.0" encoding="utf-8"?>
<!-- Generator: Adobe Illustrator 19.2.1, SVG Export Plug-In . SVG Version: 6.00 Build 0)  -->
<svg version="1.1" id="Layer_1" xmlns="http://www.w3.org/2000/svg" xmlns:xlink="http://www.w3.org/1999/xlink" x="0px" y="0px"
	 viewBox="0 0 1024 505" style="enable-background:new 0 0 1024 505;" xml:space="preserve">
<style type="text/css">
	.st0{fill:#FF0000;}
	.st1{fill:#FFFFFF;}
</style>
<g>
	<path class="st0" d="M50.7,21.8c4.6,0,8.4,3,8.4,9.7c0,6.7-3.9,9.7-8.4,9.7c-4.6,0-8.4-3-8.4-9.7C42.3,24.8,46.3,21.8,50.7,21.8z
		 M56.8,31.6c0-5.1-2.4-7.9-6-7.9c-3.5,0-6,2.6-6,7.9c0,5.1,2.4,7.8,6,7.8C54.2,39.4,56.8,36.6,56.8,31.6z"/>
	<path class="st0" d="M63.1,27.9h2.1v2.2h0c0.8-1.4,2.2-2.5,4.1-2.5c2.7,0,5.2,1.7,5.2,6.6c0,4.7-2.4,7-5.3,7
		c-1.9,0-3.4-1.1-3.9-2.2h0v6.5h-2.2V27.9z M69,39.4c2.3,0,3.4-1.8,3.4-5.2c0-2.7-0.8-4.8-3.5-4.8c-2.3,0-3.7,1.9-3.7,4.1v1.4
		C65.3,37.4,66.5,39.4,69,39.4z"/>
	<path class="st0" d="M83,41.2c-3.9,0-5.8-2.9-5.8-6.7c0-3.8,2.1-6.8,5.8-6.8c3.9,0,5.4,3,5.4,6.2V35h-8.9c0.1,2.7,1.2,4.5,3.6,4.5
		c2.2,0,2.7-1.2,2.9-2h2.1C87.7,39.7,85.8,41.2,83,41.2z M86.1,33.1c0-2.2-0.9-3.8-3.2-3.8c-2.1,0-3.2,1.6-3.5,4h6.6V33.1z"/>
	<path class="st0" d="M99.9,32.9c0-0.9,0-2-0.5-2.6c-0.4-0.6-1.2-0.9-2-0.9c-2.4,0-3.5,1.5-3.5,3.6v7.7h-2.2V27.9h2.1v2.2h0
		c0.6-1.3,2.1-2.5,4.2-2.5c2.5,0,4.1,1.2,4.1,4.2v9h-2.2V32.9z"/>
	<path class="st0" d="M123.7,27.1c-0.2-1.8-1.3-3.5-3.9-3.5c-2.5,0-3.9,1.4-3.9,3.2c0,1.7,0.9,2.7,3.1,3.1l2.6,0.5
		c3.6,0.7,4.9,2.4,4.9,5.1c0,3.4-2.3,5.6-6.8,5.6c-4.3,0-6.8-2.3-7-5.6h2.4c0.3,2,1.7,3.8,4.7,3.8c3.3,0,4.4-1.6,4.4-3.6
		c0-1.6-0.9-2.7-3.2-3.1l-2.6-0.5c-3.7-0.7-5-2.6-5-5.1c0-3,2.5-5.2,6.3-5.2c4,0,6,2.1,6.2,5.3H123.7z"/>
	<path class="st0" d="M133.5,24.2v3.7h3.2v1.7h-3.2v7.6c0,1.4,0.6,1.9,2,1.9c0.7,0,1.4-0.1,1.4-0.1v1.9c0,0-0.9,0.1-2,0.1
		c-2.5,0-3.5-1.2-3.5-3.4v-8h-2.4V28h0.4c1.7,0,2.1-0.4,2.1-2.9v-0.9H133.5z"/>
	<path class="st0" d="M141.9,35.9c0,0.9,0,2,0.5,2.6c0.4,0.6,1.1,0.9,2,0.9c2.4,0,3.5-1.6,3.5-4.4v-7h2.2v12.9H148v-2.2h0
		c-0.6,1.3-2,2.5-4.1,2.5c-2.5,0-4.1-1.2-4.1-4.2v-9h2.2V35.9z"/>
	<path class="st0" d="M165,40.8h-2.1v-2.1h-0.1c-0.7,1.3-2.1,2.4-4.1,2.4c-2.7,0-5.3-1.7-5.3-6.7c0-4.4,2.3-6.9,5.6-6.9
		c1.9,0,3.2,1.1,3.7,2.3h0v-8.4h2.2V40.8z M162.9,33.9c0-2.7-1.4-4.5-3.5-4.5c-2.5,0-3.6,2-3.6,5c0,2.9,0.9,5,3.4,5
		c2.3,0,3.7-1.8,3.7-4.2V33.9z"/>
	<path class="st0" d="M169.6,22.6h2.3V25h-2.3V22.6z M169.6,27.9h2.2v12.9h-2.2V27.9z"/>
	<path class="st0" d="M175.3,34.4c0-4,2.2-6.8,5.8-6.8c3.8,0,5.8,2.8,5.8,6.8c0,4-2.2,6.8-5.8,6.8C177.3,41.2,175.3,38.4,175.3,34.4
		z M177.6,34.4c0,3.2,1.1,5.1,3.6,5.1c2.4,0,3.5-1.9,3.5-5.1c0-3.1-1-5.1-3.5-5.1C178.7,29.3,177.6,31.2,177.6,34.4z"/>
	<path class="st0" d="M196.8,31.2c-0.1-1.2-1.1-1.9-2.6-1.9s-2.5,0.9-2.5,2.1c0,1.1,0.6,1.5,1.9,1.8l2,0.3c2.7,0.4,3.7,1.5,3.7,3.7
		c0,2.6-2.1,4-5,4c-2.7,0-4.9-1.2-5-4h2.2c0.1,1,0.7,2.3,2.9,2.3c1.8,0,2.9-0.8,2.9-2.2c0-1-0.3-1.6-2-1.9l-2-0.3
		c-2.3-0.4-3.5-1.3-3.5-3.6c0-2.3,1.7-3.9,4.7-3.9c2.8,0,4.4,1.3,4.6,3.6H196.8z"/>
</g>
<g>
	<path class="st1" d="M849.2,32.8l-6.6-10.7h2.6l5.1,8.6h0l5.3-8.6h2.4l-6.6,10.6v8.2h-2.3V32.8z"/>
	<path class="st1" d="M858.7,31.5c0-2.3,1.8-3.8,4.9-3.8c3.2,0,4.8,1.3,4.8,4.8v5.3c0,1,0.2,1.4,1.2,1.5v1.8h-0.3
		c-2.1,0-2.7-0.7-3-2.3h0c-0.7,1.5-2.2,2.4-4.1,2.4c-2.6,0-4.1-1.4-4.1-3.7c0-1.4,0.6-2.6,1.9-3.3c1.3-0.7,3.4-1,6.2-1.1v-0.6
		c0-2.3-0.9-3.2-2.7-3.2c-1.9,0-2.6,1.1-2.7,2.2H858.7z M866.2,35v-0.3c-2.8,0.1-4.4,0.3-5.2,1c-0.5,0.4-0.7,0.9-0.7,1.6
		c0,1.3,0.9,2,2.3,2C864.1,39.3,866.2,38.2,866.2,35z"/>
	<path class="st1" d="M872.7,21.5h2.2v19.3h-2.2V21.5z"/>
	<path class="st1" d="M884.2,41.2c-3.9,0-5.8-2.9-5.8-6.7c0-3.8,2.1-6.8,5.8-6.8c3.9,0,5.4,3,5.4,6.2V35h-8.9
		c0.1,2.7,1.2,4.5,3.6,4.5c2.2,0,2.7-1.2,2.9-2h2.1C888.9,39.7,886.9,41.2,884.2,41.2z M887.2,33.1c0-2.2-0.9-3.8-3.2-3.8
		c-2.1,0-3.2,1.6-3.5,4h6.6V33.1z"/>
	<path class="st1" d="M910.1,27.1c-0.2-1.8-1.3-3.5-3.9-3.5c-2.5,0-3.9,1.4-3.9,3.2c0,1.7,0.9,2.7,3.1,3.1l2.6,0.5
		c3.6,0.7,4.9,2.4,4.9,5.1c0,3.4-2.3,5.6-6.8,5.6c-4.3,0-6.8-2.3-7-5.6h2.4c0.3,2,1.7,3.8,4.7,3.8c3.3,0,4.4-1.6,4.4-3.6
		c0-1.6-0.9-2.7-3.2-3.1l-2.6-0.5c-3.7-0.7-5-2.6-5-5.1c0-3,2.5-5.2,6.3-5.2c4,0,6,2.1,6.2,5.3H910.1z"/>
	<path class="st1" d="M924.7,31.8c-0.1-1.3-1.1-2.5-2.9-2.5c-2.3,0-3.6,2-3.6,5c0,3,0.9,5.1,3.5,5.1c2.4,0,3.1-1.8,3.2-2.8h2.1
		c-0.3,3-2.4,4.5-5.2,4.5c-3.7,0-5.7-2.6-5.7-6.7c0-3.9,2.2-6.8,5.8-6.8c2.6,0,4.9,1.2,5.1,4.2H924.7z"/>
	<path class="st1" d="M938.3,32.9c0-0.9,0-1.9-0.5-2.5c-0.4-0.6-1.2-0.9-2-0.9c-2.4,0-3.5,1.5-3.5,3.6v7.7h-2.2V21.5h2.2v8.5h0
		c0.6-1.2,1.9-2.4,4-2.4c2.5,0,4.1,1.2,4.1,4.2v9h-2.2V32.9z"/>
	<path class="st1" d="M943.9,34.4c0-4,2.2-6.8,5.8-6.8c3.8,0,5.8,2.8,5.8,6.8c0,4-2.2,6.8-5.8,6.8C945.8,41.2,943.9,38.4,943.9,34.4
		z M946.1,34.4c0,3.2,1.1,5.1,3.6,5.1c2.4,0,3.5-1.9,3.5-5.1c0-3.1-1-5.1-3.5-5.1C947.3,29.3,946.1,31.2,946.1,34.4z"/>
	<path class="st1" d="M958,34.4c0-4,2.2-6.8,5.8-6.8c3.8,0,5.8,2.8,5.8,6.8c0,4-2.2,6.8-5.8,6.8C960,41.2,958,38.4,958,34.4z
		 M960.3,34.4c0,3.2,1.1,5.1,3.6,5.1c2.4,0,3.5-1.9,3.5-5.1c0-3.1-1-5.1-3.5-5.1C961.4,29.3,960.3,31.2,960.3,34.4z"/>
	<path class="st1" d="M973,21.5h2.2v19.3H973V21.5z"/>
</g>
<g>
	<path class="st1" d="M983.6,46.1c4,0,6.8,2.2,6.8,5.8c0,3.8-2.8,5.8-6.8,5.8c-4,0-6.8-2.2-6.8-5.8C976.8,48,979.6,46.1,983.6,46.1z
		 M983.6,48.3c-3.2,0-5.1,1.1-5.1,3.6c0,2.4,1.9,3.5,5.1,3.5c3.1,0,5.1-1,5.1-3.5C988.7,49.5,986.8,48.3,983.6,48.3z"/>
	<path class="st1" d="M977.2,63.8v-2.2h11.2v-2.4h1.7v2.4h2.9c2.6,0,3.6,1.5,3.6,3.9c0,0.5,0,1-0.1,1.4h-1.8c0-0.2,0.1-0.6,0.1-1.2
		c0-1.3-0.5-1.9-2-1.9h-2.6v3.1h-1.7v-3.1H977.2z"/>
	<path class="st1" d="M982.7,86.9v-7.5l-5.6-1.9v-2.3l18.7,6.7v2.7l-18.7,6.7v-2.4L982.7,86.9z M991.3,82.4l-6.7-2.3v6.2l6.7-2.4
		c1.1-0.4,2.3-0.7,2.3-0.7v0C993.5,83.1,992.3,82.8,991.3,82.4z"/>
	<path class="st1" d="M990.1,94.6v2.1h-2.4v0c1.3,0.6,2.7,2.2,2.7,4.1v0.2H988v-0.4c0-2.3-1.3-3.8-3.8-3.8h-7v-2.2H990.1z"/>
	<path class="st1" d="M993.8,107.2h-3.7v3.2h-1.7v-3.2h-7.6c-1.4,0-1.9,0.6-1.9,2c0,0.7,0.1,1.4,0.1,1.4h-1.9c0,0-0.1-0.9-0.1-2
		c0-2.5,1.2-3.5,3.4-3.5h8v-2.4h1.6v0.4c0,1.7,0.4,2.1,2.9,2.1h0.9V107.2z"/>
</g>
<g>
	<path class="st1" d="M984.9,296.6h2v1c0,1.9,1.4,3.3,3.2,3.3c1.9,0,3.1-1.4,3.1-3.3c0-2.3-1.1-3.6-3.6-3.7v-2.2
		c2.9,0,5.5,2,5.5,5.9c0,3.5-2.1,5.5-4.9,5.5c-1.9,0-3.4-1.3-4.1-3h0c-0.5,1.8-1.8,3.5-4.6,3.5c-2.8,0-5.2-2.3-5.2-6.2
		c0-4.1,2.5-5.9,5.5-6.1v2.2c-2.4,0.3-3.6,2-3.6,4c0,2.1,1.3,3.8,3.3,3.8c2.2,0,3.4-1.4,3.4-3.8V296.6z"/>
	<path class="st1" d="M989.3,306.8c3.7,0,5.8,2.6,5.8,5.9c0,4-2.5,5.6-4.9,5.6c-2.5,0-3.9-1-6.8-4l-4.7-4.9h0v9.1h-2v-12h1.7
		l6.2,6.2c2.1,2,3.4,3.4,5.5,3.4c1.9,0,3.2-1.2,3.2-3.3c0-1.9-1.1-3.6-4-3.6V306.8z"/>
	<path class="st1" d="M995.5,329.3v12h-2v-9.7h-6.2v8.9h-2v-8.9h-6.4v9.8h-2v-12.1H995.5z"/>
	<path class="st1" d="M976.7,355.8v-2.1h2.1v-0.1c-1.3-0.7-2.4-2.1-2.4-4.1c0-2.7,1.7-5.3,6.7-5.3c4.4,0,6.9,2.3,6.9,5.6
		c0,1.9-1.1,3.2-2.3,3.7v0h8.4v2.2H976.7z M983.7,353.6c2.7,0,4.5-1.4,4.5-3.5c0-2.5-2-3.6-5-3.6c-2.9,0-5,0.9-5,3.4
		c0,2.3,1.8,3.7,4.2,3.7H983.7z"/>
	<path class="st1" d="M975.4,359.5v2.1c-1.1,0.2-1.8,1.1-1.8,3.2c0,2.4,0.9,3.7,3.7,3.7h1.9v0c-1.3-0.7-2.4-2.2-2.4-4.1
		c0-2.7,1.7-5.2,6.5-5.2c4.3,0,6.6,2.3,6.6,5.4c0,2.1-1.2,3.3-2.4,3.9v0h2v2.1H977c-3.6,0-5.2-2.4-5.2-5.9
		C971.8,362.4,972.8,359.8,975.4,359.5z M983.9,368.6c2.6,0,4.3-1.4,4.3-3.7c0-2.3-1.9-3.4-4.8-3.4c-2.8,0-4.8,0.8-4.8,3.5
		c0,2.1,1.8,3.6,4,3.6H983.9z"/>
	<path class="st1" d="M976.4,380c0-3.9,2.9-5.8,6.7-5.8c3.8,0,6.8,2.1,6.8,5.8c0,3.9-3,5.4-6.2,5.4h-1.1v-8.9
		c-2.7,0.1-4.5,1.2-4.5,3.6c0,2.2,1.2,2.7,2,2.9v2.1C977.9,384.6,976.4,382.7,976.4,380z M984.5,383c2.2,0,3.8-0.9,3.8-3.2
		c0-2.1-1.6-3.2-4-3.5v6.6H984.5z"/>
	<path class="st1" d="M989.6,387.1v2.3l-8.7,2.5c-0.8,0.2-1.6,0.4-1.6,0.4v0c0,0,0.9,0.2,1.6,0.5l8.7,2.7v2.3l-8.7,2.7
		c-0.8,0.2-1.6,0.5-1.6,0.5v0c0,0,0.9,0.2,1.6,0.4l8.7,2.5v2.1l-12.9-4v-2.3l7.6-2.4c1.2-0.4,2.7-0.8,2.7-0.8v0c0,0-1.6-0.4-2.7-0.8
		l-7.6-2.4v-2.3L989.6,387.1z"/>
	<path class="st1" d="M983.2,407.8c4,0,6.8,2.2,6.8,5.8c0,3.8-2.8,5.8-6.8,5.8c-4,0-6.8-2.2-6.8-5.8
		C976.4,409.8,979.1,407.8,983.2,407.8z M983.2,410.1c-3.2,0-5.1,1.1-5.1,3.6c0,2.4,1.9,3.5,5.1,3.5c3.1,0,5.1-1,5.1-3.5
		C988.3,411.3,986.3,410.1,983.2,410.1z"/>
	<path class="st1" d="M983.2,422c4,0,6.8,2.2,6.8,5.8c0,3.8-2.8,5.8-6.8,5.8c-4,0-6.8-2.2-6.8-5.8C976.4,423.9,979.1,422,983.2,422z
		 M983.2,424.3c-3.2,0-5.1,1.1-5.1,3.6c0,2.4,1.9,3.5,5.1,3.5c3.1,0,5.1-1,5.1-3.5C988.3,425.4,986.3,424.3,983.2,424.3z"/>
	<path class="st1" d="M976.7,447.6v-2.1h2.1v-0.1c-1.3-0.7-2.4-2.1-2.4-4.1c0-2.7,1.7-5.3,6.7-5.3c4.4,0,6.9,2.3,6.9,5.6
		c0,1.9-1.1,3.2-2.3,3.7v0h8.4v2.2H976.7z M983.7,445.5c2.7,0,4.5-1.4,4.5-3.5c0-2.5-2-3.6-5-3.6c-2.9,0-5,0.9-5,3.4
		c0,2.3,1.8,3.7,4.2,3.7H983.7z"/>
</g>
<g>
	<path class="st1" d="M854.8,463.9v-2h1c1.9,0,3.3-1.4,3.3-3.2c0-1.9-1.4-3.1-3.3-3.1c-2.3,0-3.6,1.1-3.7,3.6h-2.2
		c0-2.9,2-5.5,5.9-5.5c3.5,0,5.5,2.1,5.5,4.9c0,1.9-1.3,3.4-3,4.1v0c1.8,0.5,3.5,1.8,3.5,4.6c0,2.8-2.3,5.2-6.2,5.2
		c-4.1,0-5.9-2.5-6.1-5.5h2.2c0.3,2.4,2,3.6,4,3.6c2.1,0,3.8-1.3,3.8-3.3c0-2.2-1.4-3.4-3.8-3.4H854.8z"/>
	<path class="st1" d="M870.8,462.1c-1.5,0-2.7,0.5-3.4,1.6h-1.9l0.8-9.7h9.6v1.9h-7.8l-0.5,5.8h0c0.6-0.8,1.9-1.5,3.5-1.5
		c2.8,0,5.6,1.8,5.6,6.1c0,3.8-2.4,6.2-6.2,6.2c-4.1,0-5.6-2.6-5.8-5.1h2.2c0.2,2.3,1.6,3.2,3.7,3.2c1.9,0,3.8-1.3,3.8-4.3
		C874.6,463.6,872.9,462.1,870.8,462.1z"/>
	<path class="st1" d="M885.3,463.9v-2h1c1.9,0,3.3-1.4,3.3-3.2c0-1.9-1.4-3.1-3.3-3.1c-2.3,0-3.6,1.1-3.7,3.6h-2.2
		c0-2.9,2-5.5,5.9-5.5c3.5,0,5.5,2.1,5.5,4.9c0,1.9-1.3,3.4-3,4.1v0c1.8,0.5,3.5,1.8,3.5,4.6c0,2.8-2.3,5.2-6.2,5.2
		c-4.1,0-5.9-2.5-6.1-5.5h2.2c0.3,2.4,2,3.6,4,3.6c2.1,0,3.8-1.3,3.8-3.3c0-2.2-1.4-3.4-3.8-3.4H885.3z"/>
	<path class="st1" d="M904.6,462.8c0,4.8,2.2,7.8,5.9,7.8c3.3,0,4.7-2.2,4.9-4.4h2.3c-0.3,3.5-3,6.2-7.2,6.2c-4.9,0-8.3-3.2-8.3-9.7
		c0-6.1,3.5-9.7,8.4-9.7c3.2,0,6.8,1.7,7.2,5.9h-2.4c-0.3-1.9-1.8-4-4.8-4C906.7,455,904.6,458.1,904.6,462.8z"/>
	<path class="st1" d="M921.5,459.2h2.1v2.4h0c0.6-1.3,2.2-2.7,4.1-2.7h0.2v2.3h-0.4c-2.3,0-3.8,1.3-3.8,3.8v7h-2.2V459.2z"/>
	<path class="st1" d="M929.7,465.7c0-4,2.2-6.8,5.8-6.8c3.8,0,5.8,2.8,5.8,6.8c0,4-2.2,6.8-5.8,6.8
		C931.6,472.4,929.7,469.7,929.7,465.7z M931.9,465.7c0,3.2,1.1,5.1,3.6,5.1c2.4,0,3.5-1.9,3.5-5.1c0-3.1-1-5.1-3.5-5.1
		C933.1,460.6,931.9,462.5,931.9,465.7z"/>
	<path class="st1" d="M942.9,459.2h2.3l2.5,8.7c0.2,0.8,0.4,1.6,0.4,1.6h0c0,0,0.2-0.9,0.5-1.6l2.7-8.7h2.3l2.7,8.7
		c0.2,0.8,0.5,1.6,0.5,1.6h0c0,0,0.2-0.9,0.4-1.6l2.5-8.7h2.1l-4,12.9h-2.3l-2.4-7.6c-0.4-1.2-0.8-2.7-0.8-2.7h0
		c0,0-0.4,1.6-0.8,2.7l-2.4,7.6H947L942.9,459.2z"/>
	<path class="st1" d="M973.1,464.2c0-0.9,0-2-0.5-2.6c-0.4-0.6-1.2-0.9-2-0.9c-2.4,0-3.5,1.5-3.5,3.6v7.7h-2.2v-12.9h2.1v2.2h0
		c0.6-1.3,2.1-2.5,4.2-2.5c2.5,0,4.1,1.2,4.1,4.2v9h-2.2V464.2z"/>
</g>
<circle class="st0" cx="28" cy="31" r="9.9"/>
<g>
	<path class="st1" d="M44.8,458.8h-3.6v-1.6h0.5c1.2,0,2.1-0.3,2.7-0.9c0.5-0.5,0.8-1.3,0.8-2.4H47v18.2h-2.2V458.8z"/>
	<path class="st1" d="M55.1,458.8h-3.6v-1.6H52c1.2,0,2.1-0.3,2.7-0.9c0.5-0.5,0.8-1.3,0.8-2.4h1.8v18.2h-2.2V458.8z"/>
	<path class="st1" d="M67.9,462.1c-1.5,0-2.7,0.5-3.4,1.6h-1.9l0.8-9.7h9.6v1.9h-7.8l-0.5,5.8h0c0.6-0.8,1.9-1.5,3.5-1.5
		c2.8,0,5.6,1.8,5.6,6.1c0,3.8-2.4,6.2-6.2,6.2c-4.1,0-5.6-2.6-5.8-5.1h2.2c0.2,2.3,1.6,3.2,3.7,3.2c1.9,0,3.8-1.3,3.8-4.3
		C71.7,463.6,70,462.1,67.9,462.1z"/>
	<path class="st1" d="M87.2,457.9c-0.3-1.5-1.3-2.5-3.2-2.5c-3.2,0-4.3,3.4-4.5,7.6h0.1c0.8-1.5,2.5-2.5,4.6-2.5
		c2.7,0,5.6,1.7,5.6,5.8c0,3.6-2.4,6.2-6.1,6.2c-3.3,0-6.3-1.6-6.3-8.4c0-6.9,2.2-10.4,6.7-10.4c3.3,0,5,1.5,5.3,4.2H87.2z
		 M87.6,466.5c0-2.7-1.7-4.1-3.8-4.1c-2.2,0-3.8,1.3-3.8,4.1c0,2.9,1.9,4.2,3.8,4.2C85.6,470.6,87.6,469.4,87.6,466.5z"/>
	<path class="st1" d="M102.2,462.8c0,4.8,2.2,7.8,5.9,7.8c3.3,0,4.7-2.2,4.9-4.4h2.3c-0.3,3.5-3,6.2-7.2,6.2c-4.9,0-8.3-3.2-8.3-9.7
		c0-6.1,3.5-9.7,8.4-9.7c3.2,0,6.8,1.7,7.2,5.9h-2.4c-0.3-1.9-1.8-4-4.8-4C104.3,455,102.2,458.1,102.2,462.8z"/>
	<path class="st1" d="M127.2,464.1c0-0.9,0-1.9-0.5-2.5c-0.4-0.6-1.2-0.9-2-0.9c-2.4,0-3.5,1.5-3.5,3.6v7.7H119v-19.3h2.2v8.5h0
		c0.6-1.2,1.9-2.4,4-2.4c2.5,0,4.1,1.2,4.1,4.2v9h-2.2V464.1z"/>
	<path class="st1" d="M133.4,462.8c0-2.3,1.8-3.8,4.9-3.8c3.2,0,4.8,1.3,4.8,4.8v5.3c0,1,0.2,1.4,1.2,1.5v1.8h-0.3
		c-2.1,0-2.7-0.7-3-2.3h0c-0.7,1.5-2.2,2.4-4.1,2.4c-2.6,0-4.1-1.4-4.1-3.7c0-1.4,0.6-2.6,1.9-3.3c1.3-0.7,3.4-1,6.2-1.1v-0.6
		c0-2.3-0.9-3.2-2.7-3.2c-1.9,0-2.6,1.1-2.7,2.2H133.4z M140.9,466.3V466c-2.8,0.1-4.4,0.3-5.2,1c-0.5,0.4-0.7,0.9-0.7,1.6
		c0,1.3,0.9,2,2.3,2C138.8,470.6,140.9,469.5,140.9,466.3z"/>
	<path class="st1" d="M147.4,459.2h2.1v2.2h0c0.8-1.4,2.2-2.5,4.1-2.5c2.7,0,5.2,1.7,5.2,6.6c0,4.7-2.4,7-5.3,7
		c-1.9,0-3.4-1.1-3.9-2.2h0v6.5h-2.2V459.2z M153.2,470.7c2.3,0,3.4-1.8,3.4-5.2c0-2.7-0.8-4.8-3.5-4.8c-2.3,0-3.7,1.9-3.7,4.1v1.4
		C149.5,468.7,150.8,470.7,153.2,470.7z"/>
	<path class="st1" d="M167.3,472.5c-3.9,0-5.8-2.9-5.8-6.7c0-3.8,2.1-6.8,5.8-6.8c3.9,0,5.4,3,5.4,6.2v1.1h-8.9
		c0.1,2.7,1.2,4.5,3.6,4.5c2.2,0,2.7-1.2,2.9-2h2.1C172,471,170.1,472.5,167.3,472.5z M170.3,464.4c0-2.2-0.9-3.8-3.2-3.8
		c-2.1,0-3.2,1.6-3.5,4h6.6V464.4z"/>
	<path class="st1" d="M176.1,452.8h2.2v19.3h-2.2V452.8z"/>
</g>
<g>
	<path class="st1" d="M25.2,255.1v-7.5l-5.6-1.9v-2.3l18.7,6.7v2.7l-18.7,6.7V257L25.2,255.1z M33.7,250.6l-6.7-2.3v6.2l6.7-2.4
		c1.1-0.4,2.3-0.7,2.3-0.7v0C35.9,251.3,34.8,250.9,33.7,250.6z"/>
	<path class="st1" d="M32.5,262.7v2.1h-2.2v0c1.4,0.8,2.5,2.2,2.5,4.1c0,2.7-1.7,5.2-6.6,5.2c-4.7,0-7-2.4-7-5.3
		c0-1.9,1.1-3.4,2.2-3.9v0H15v-2.2H32.5z M21,268.6c0,2.3,1.8,3.4,5.2,3.4c2.7,0,4.8-0.8,4.8-3.5c0-2.3-1.9-3.7-4.1-3.7h-1.4
		C23,264.9,21,266.1,21,268.6z"/>
	<path class="st1" d="M32.5,277.7v2.1h-2.4v0c1.3,0.6,2.7,2.2,2.7,4.1v0.2h-2.3v-0.4c0-2.3-1.3-3.8-3.8-3.8h-7v-2.2H32.5z"/>
	<path class="st1" d="M32.5,287.3v2.2H19.6v-2.2H32.5z M37.8,287.2v2.3h-2.4v-2.3H37.8z"/>
	<path class="st1" d="M38.9,294.1v2.2H19.6v-2.2H38.9z"/>
	<path class="st1" d="M35.7,315.1v-9h2v11.6h-1.4l-16.7-7.6v-2.4L35.7,315.1z"/>
	<path class="st1" d="M28.5,318.9v10.5h-1.7v-10.5H28.5z"/>
	<path class="st1" d="M38,338.4c0,3.5-2.2,5.8-4.9,5.8c-2.2,0-3.7-1.5-4.2-3h0c-0.4,1.6-1.7,3.5-4.4,3.5c-2.9,0-5.2-2.4-5.2-6.3
		c0-3.8,2.2-6.2,5.2-6.2c2.7,0,4,2,4.4,3.5h0c0.5-1.5,2-2.9,4.2-2.9C35.8,332.7,38,334.9,38,338.4z M24.4,342.4c2.4,0,3.5-1.9,3.5-4
		c0-2.1-1.1-4-3.5-4c-2.4,0-3.5,1.9-3.5,4C20.9,340.6,22,342.4,24.4,342.4z M32.9,334.9c-2.2,0-3.3,1.6-3.3,3.5
		c0,1.8,1.1,3.5,3.3,3.5c2.3,0,3.3-1.6,3.3-3.5C36.2,336.5,35.2,334.9,32.9,334.9z"/>
	<path class="st1" d="M22.6,347.9v2.7l-5.9-2v-1.6L22.6,347.9z"/>
	<path class="st1" d="M32.9,363.1v-3.6h1.6v0.5c0,1.2,0.3,2.1,0.9,2.7c0.5,0.5,1.3,0.8,2.4,0.8v1.8H19.6v-2.2H32.9z"/>
	<path class="st1" d="M32.2,370.2c3.7,0,5.8,2.6,5.8,5.9c0,4-2.5,5.6-4.9,5.6c-2.5,0-3.9-1-6.8-4l-4.7-4.9h0v9.1h-2v-12h1.7l6.2,6.2
		c2.1,2,3.4,3.4,5.5,3.4c1.9,0,3.2-1.2,3.2-3.3c0-1.9-1.1-3.6-4-3.6V370.2z"/>
	<path class="st1" d="M28.5,384.3v10.5h-1.7v-10.5H28.5z"/>
	<path class="st1" d="M33.8,407.8c1.5-0.3,2.5-1.3,2.5-3.2c0-3.2-3.4-4.3-7.6-4.5v0.1c1.5,0.8,2.5,2.5,2.5,4.6
		c0,2.7-1.7,5.6-5.8,5.6c-3.6,0-6.2-2.4-6.2-6.1c0-3.3,1.6-6.3,8.4-6.3c6.9,0,10.4,2.2,10.4,6.7c0,3.3-1.5,5-4.2,5.3V407.8z
		 M25.2,408.1c2.7,0,4.1-1.7,4.1-3.8c0-2.2-1.3-3.8-4.1-3.8c-2.9,0-4.2,1.9-4.2,3.8C21.1,406.2,22.3,408.1,25.2,408.1z"/>
	<path class="st1" d="M32.5,414.3v2.1h-2.2v0c1.4,0.8,2.5,2.2,2.5,4.1c0,2.7-1.7,5.2-6.6,5.2c-4.7,0-7-2.4-7-5.3
		c0-1.9,1.1-3.4,2.2-3.9v0H15v-2.2H32.5z M21,420.1c0,2.3,1.8,3.4,5.2,3.4c2.7,0,4.8-0.8,4.8-3.5c0-2.3-1.9-3.7-4.1-3.7h-1.4
		C23,416.4,21,417.6,21,420.1z"/>
	<path class="st1" d="M32.5,429.2v2.1h-2.2v0c1.3,0.6,2.5,2.1,2.5,4.1c0,2-0.9,3.4-2.7,3.9v0c1.3,0.5,2.7,2.1,2.7,4.2
		c0,2.4-1.2,4.1-4.2,4.1h-9v-2.2h8c0.9,0,1.9,0,2.6-0.5c0.6-0.4,0.8-1.2,0.8-2c0-2.4-1.5-3.5-3.6-3.5h-7.7v-2.2h8
		c0.9,0,1.9,0,2.5-0.5c0.6-0.4,0.9-1.2,0.9-2c0-2.4-1.5-3.5-3.6-3.5h-7.8v-2.2H32.5z"/>
</g>
</svg>
